<?xml version="1.0" encoding="UTF-8"?>
<svg width="40" height="40" viewBox="0 0 40 40" fill="none" xmlns="http://www.w3.org/2000/svg">
  <rect width="40" height="40" rx="8" fill="#6C63FF"/>
  <path d="M20 10C14.4772 10 10 14.4772 10 20C10 25.5228 14.4772 30 20 30C25.5228 30 30 25.5228 30 20C30 14.4772 25.5228 10 20 10ZM20 27.5C15.8579 27.5 12.5 24.1421 12.5 20C12.5 15.8579 15.8579 12.5 20 12.5C24.1421 12.5 27.5 15.8579 27.5 20C27.5 24.1421 24.1421 27.5 20 27.5Z" fill="white"/>
  <path d="M20 15C17.2386 15 15 17.2386 15 20C15 22.7614 17.2386 25 20 25C22.7614 25 25 22.7614 25 20C25 17.2386 22.7614 15 20 15ZM20 22.5C18.6193 22.5 17.5 21.3807 17.5 20C17.5 18.6193 18.6193 17.5 20 17.5C21.3807 17.5 22.5 18.6193 22.5 20C22.5 21.3807 21.3807 22.5 20 22.5Z" fill="white"/>
  <path d="M20 18.75C19.3096 18.75 18.75 19.3096 18.75 20C18.75 20.6904 19.3096 21.25 20 21.25C20.6904 21.25 21.25 20.6904 21.25 20C21.25 19.3096 20.6904 18.75 20 18.75Z" fill="white"/>
</svg>
